<?xml version="1.0" standalone="no"?><!DOCTYPE svg PUBLIC "-//W3C//DTD SVG 1.1//EN" "http://www.w3.org/Graphics/SVG/1.1/DTD/svg11.dtd"><svg t="1722840668077" class="icon" viewBox="0 0 1024 1024" version="1.1" xmlns="http://www.w3.org/2000/svg" p-id="7610" xmlns:xlink="http://www.w3.org/1999/xlink" width="200" height="200"><path d="M512 512m-298.666667 0a298.666667 298.666667 0 1 0 597.333334 0 298.666667 298.666667 0 1 0-597.333334 0Z" fill="#F3DB2B" p-id="7611"></path><path d="M560 319.957333v229.162667s-7.552 68.778667-50.090667 91.050667c-26.282667 15.445333-63.701333 33.408-113.066666 34.944l28.885333 28.842666s86.485333-7.594667 125.952-43.306666c39.466667-35.626667 40.96-79.018667 40.96-96V344.192l-32.64-24.32V320z" fill="#62B2E4" p-id="7612"></path><path d="M560 319.957333v229.162667s-7.552 68.778667-50.090667 91.050667c-26.282667 15.445333-63.701333 33.408-113.066666 34.944l-16.213334-68.821334s34.986667-6.613333 58.24-14.165333c23.253333-7.594667 35.584-47.061333 35.584-47.061333V320h85.546667v-0.042667z" fill="#FFFFFF" p-id="7613"></path></svg>