<?xml version="1.0" standalone="no"?><!DOCTYPE svg PUBLIC "-//W3C//DTD SVG 1.1//EN" "http://www.w3.org/Graphics/SVG/1.1/DTD/svg11.dtd"><svg t="1722825367896" class="icon" viewBox="0 0 1024 1024" version="1.1" xmlns="http://www.w3.org/2000/svg" p-id="9286" xmlns:xlink="http://www.w3.org/1999/xlink" width="200" height="200"><path d="M0 512c0 282.752 229.248 512 512 512s512-229.248 512-512S794.752 0 512 0 0 229.248 0 512z" fill="#6001D2" p-id="9287"></path><path d="M707.114667 213.333333l-130.56 294.954667h145.92L853.333333 213.333333h-146.218666zM170.666667 360.661333l146.517333 330.709334L264.533333 810.666667h128.853334l195.114666-450.005334h-128l-79.616 192.554667-78.762666-192.554667H170.666667z m444.330666 176.213334c-47.530667 0-82.773333 35.797333-82.773333 77.525333 0 40.618667 34.133333 74.666667 79.36 74.666667 47.786667 0 83.328-35.157333 83.328-76.970667 0-42.026667-34.133333-75.221333-79.914667-75.221333z" fill="#FFFFFF" p-id="9288"></path></svg>